<svg width="28" height="28" viewBox="0 0 28 28" fill="none" xmlns="http://www.w3.org/2000/svg">
<path fill-rule="evenodd" clip-rule="evenodd" d="M21.2243 7.65199C19.6529 5.82759 17.3873 4.74633 14.9798 4.67177C14.8797 4.66826 14.7795 4.6665 14.6794 4.6665C12.3812 4.66765 10.1769 5.57788 8.54818 7.19831C5.73361 10.0056 5.19599 14.3688 7.24499 17.7746C7.6306 18.4082 7.53496 19.2228 7.01308 19.75L3.77882 22.9818C3.59633 23.1663 3.49588 23.4164 3.50013 23.6758C3.49961 23.9008 3.59099 24.1163 3.75313 24.2724C4.09888 24.5826 4.62532 24.5746 4.96144 24.2539L8.23919 20.9774C8.75498 20.4545 9.56166 20.352 10.192 20.7292C11.5439 21.5447 13.0931 21.9752 14.6721 21.9743C17.1677 21.9735 19.5421 20.8993 21.1894 19.0257C24.0347 15.7726 24.0495 10.9225 21.2243 7.65199ZM19.9567 17.8023C18.6397 19.3501 16.7091 20.2421 14.6761 20.2419C12.6436 20.243 10.713 19.3523 9.39546 17.8056C7.21633 15.2148 7.21633 11.4333 9.39546 8.8425C10.7119 7.29432 12.6419 6.40171 14.6748 6.40091C16.7075 6.39972 18.6383 7.29042 19.956 8.83724C22.1378 11.429 22.1381 15.2135 19.9567 17.8056V17.8023Z" fill="#F2F2F2"/>
<mask id="mask0_949_302" style="mask-type:luminance" maskUnits="userSpaceOnUse" x="3" y="4" width="21" height="21">
<path fill-rule="evenodd" clip-rule="evenodd" d="M21.2243 7.65199C19.6529 5.82759 17.3873 4.74633 14.9798 4.67177C14.8797 4.66826 14.7795 4.6665 14.6794 4.6665C12.3812 4.66765 10.1769 5.57788 8.54818 7.19831C5.73361 10.0056 5.19599 14.3688 7.24499 17.7746C7.6306 18.4082 7.53496 19.2228 7.01308 19.75L3.77882 22.9818C3.59633 23.1663 3.49588 23.4164 3.50013 23.6758C3.49961 23.9008 3.59099 24.1163 3.75313 24.2724C4.09888 24.5826 4.62532 24.5746 4.96144 24.2539L8.23919 20.9774C8.75498 20.4545 9.56166 20.352 10.192 20.7292C11.5439 21.5447 13.0931 21.9752 14.6721 21.9743C17.1677 21.9735 19.5421 20.8993 21.1894 19.0257C24.0347 15.7726 24.0495 10.9225 21.2243 7.65199ZM19.9567 17.8023C18.6397 19.3501 16.7091 20.2421 14.6761 20.2419C12.6436 20.243 10.713 19.3523 9.39546 17.8056C7.21633 15.2148 7.21633 11.4333 9.39546 8.8425C10.7119 7.29432 12.6419 6.40171 14.6748 6.40091C16.7075 6.39972 18.6383 7.29042 19.956 8.83724C22.1378 11.429 22.1381 15.2135 19.9567 17.8056V17.8023Z" fill="white"/>
</mask>
<g mask="url(#mask0_949_302)">
<path fill-rule="evenodd" clip-rule="evenodd" d="M28 28H0V0H28V28Z" fill="#F2F2F2"/>
</g>
</svg>
